<svg xmlns="http://www.w3.org/2000/svg" viewBox="-48 333.2 514.4 126.8" enable-background="new -48 333.2 514.4 126.8"><path fill="#212028" d="M41.3 398.8c-2.5-2.5-5.4-4.5-8.8-5.9-3.4-1.5-6.9-2.2-10.7-2.2-8.3 0-15.4 3.3-21.1 9.8-2.7-3.3-5.9-5.8-9.5-7.4s-7.5-2.4-11.6-2.4c-5.6 0-10.6 1.5-15 4.4-.4-1.3-1.2-2.4-2.3-3.2-1.1-.8-2.4-1.2-3.8-1.2-1.8 0-3.3.6-4.5 1.9-1.3 1.3-1.9 2.8-1.9 4.5v56.4c0 1.8.6 3.3 1.9 4.6 1.3 1.3 2.8 1.9 4.6 1.9 1.8 0 3.3-.6 4.5-1.9 1.3-1.3 1.9-2.8 1.9-4.6v-35.2c0-2 .4-3.9 1.1-5.7.8-1.8 1.8-3.3 3.2-4.7s2.9-2.4 4.7-3.2c1.8-.8 3.7-1.1 5.7-1.1s3.9.4 5.7 1.2c1.8.8 3.3 1.8 4.6 3.2 1.3 1.3 2.4 2.9 3.2 4.6.8 1.8 1.2 3.7 1.2 5.7v35.2c0 1.8.6 3.4 1.9 4.6 1.3 1.3 2.8 1.9 4.6 1.9 1.8 0 3.3-.6 4.5-1.9 1.3-1.3 1.9-2.8 1.9-4.6v-35.2c0-2 .4-3.9 1.1-5.7.8-1.8 1.8-3.3 3.2-4.6 1.3-1.3 2.9-2.4 4.7-3.2 1.8-.8 3.7-1.2 5.7-1.2 2.1 0 4 .4 5.8 1.2 1.8.8 3.3 1.8 4.7 3.2 1.3 1.3 2.4 2.9 3.1 4.7.8 1.8 1.1 3.6 1.1 5.6v35.2c0 1.8.6 3.3 1.9 4.6 1.2 1.3 2.8 1.9 4.6 1.9 1.8 0 3.3-.6 4.5-1.9 1.3-1.3 1.9-2.8 1.9-4.6v-35.2c0-3.8-.7-7.3-2.2-10.7-1.7-3.4-3.6-6.3-6.1-8.8zm73.3-8.1c-1.8 0-3.4.6-4.6 1.9-1.3 1.3-1.9 2.8-1.9 4.5v30.5c0 2.7-.5 5.2-1.5 7.5s-2.4 4.4-4.2 6.2c-1.8 1.8-3.8 3.2-6.2 4.2-2.4 1-4.8 1.5-7.5 1.5s-5.2-.5-7.5-1.5-4.4-2.4-6.2-4.1c-1.8-1.8-3.1-3.8-4.1-6.2-1-2.4-1.5-4.9-1.5-7.5v-30.5c0-1.8-.6-3.3-1.9-4.5-1.3-1.3-2.8-1.9-4.5-1.9-1.8 0-3.3.6-4.6 1.9-1.3 1.3-1.9 2.8-1.9 4.5v30.5c0 4.4.9 8.6 2.6 12.5 1.7 3.9 4 7.3 7 10.3 2.9 2.9 6.3 5.2 10.3 7 3.9 1.7 8.1 2.6 12.5 2.6 3.7 0 7.2-.5 10.3-1.5 3.2-1 6.2-2.6 9-4.9 0 1.8.7 3.3 1.9 4.5 1.2 1.2 2.7 1.9 4.6 1.9 1.8 0 3.4-.6 4.6-1.9 1.3-1.3 1.9-2.8 1.9-4.5v-56.4c0-1.8-.6-3.3-1.9-4.5-1.4-1.5-2.9-2.1-4.7-2.1zm64.7 37.6c-1.4-1.5-4.1-3-8.2-4.6l-28.9-9.5c-1.1-.4-1.6-1.2-1.6-2.3s.3-2.1 1-2.7c3.5-3.6 8.3-5.4 14.2-5.4 6 0 11.1 2.1 15.3 6.3.9.9 1.8 1.7 2.7 2.4.9.7 2.1 1.1 3.4 1.1 1.9 0 3.4-.6 4.6-1.8 1.2-1.2 1.8-2.8 1.8-4.6 0-1.5-.4-2.8-1.3-3.9-7.4-8.3-16.2-12.4-26.5-12.4-3.4 0-6.8.5-10.1 1.5-3.4 1-6.4 2.3-9.1 4.1-2.7 1.8-4.9 3.9-6.5 6.5-1.7 2.5-2.5 5.4-2.5 8.5 0 4.3 1.6 8 4.7 11.2h-.1c1.6 1.6 4.3 3.1 8.2 4.6l28.9 9.5c1.1.5 1.7 1.3 1.7 2.4 0 1-.3 1.8-.9 2.5-3.6 3.7-8.3 5.6-14.2 5.6-6.1 0-11.2-2.1-15.4-6.3-.8-.7-1.6-1.5-2.6-2.3-.9-.8-2.1-1.2-3.5-1.2-1.9 0-3.4.6-4.6 1.8-1.2 1.2-1.8 2.8-1.8 4.6 0 1.5.5 2.8 1.4 4 7.3 8.2 16.1 12.3 26.5 12.3 3.4 0 6.7-.5 10.1-1.4 3.3-.9 6.3-2.3 9-4.1 2.7-1.8 4.9-3.9 6.5-6.5 1.7-2.5 2.5-5.4 2.5-8.5-.1-4.5-1.7-8.2-4.7-11.4zm17.8-57.5c-2.1 0-3.9.7-5.4 2.2-1.5 1.5-2.2 3.3-2.2 5.4 0 2.1.7 3.9 2.2 5.4 1.5 1.5 3.3 2.2 5.4 2.2 2.1 0 3.9-.7 5.4-2.2 1.5-1.5 2.2-3.3 2.2-5.4 0-2.1-.7-3.9-2.2-5.4-1.6-1.4-3.3-2.2-5.4-2.2zm0 19.9c-1.8 0-3.3.6-4.5 1.9-1.3 1.3-1.9 2.8-1.9 4.6v56.3c0 1.8.6 3.4 1.9 4.6 1.3 1.3 2.8 1.9 4.5 1.9s3.3-.6 4.5-1.9c1.3-1.3 1.9-2.8 1.9-4.6v-56.3c0-1.8-.7-3.4-1.9-4.6-1.3-1.2-2.8-1.9-4.5-1.9zm32.4 19.3c2-2 4.3-3.5 6.9-4.6 2.6-1.1 5.5-1.7 8.5-1.7 2.7 0 5.2.5 7.5 1.4 2.3.9 4.5 2.2 6.6 4 1.2 1 2.6 1.5 4.2 1.5 1.9 0 3.4-.6 4.6-1.9 1.2-1.2 1.8-2.8 1.8-4.6 0-1.9-.7-3.6-2.2-4.9-6.4-5.6-13.9-8.4-22.6-8.4-9.6 0-17.7 3.4-24.5 10.1-6.8 6.8-10.1 14.9-10.1 24.5s3.4 17.7 10.1 24.5c6.8 6.8 14.9 10.1 24.5 10.1 8.7 0 16.2-2.8 22.6-8.4 1.4-1.4 2-2.9 2-4.8s-.6-3.4-1.8-4.6c-1.2-1.2-2.8-1.8-4.6-1.8-1.6 0-2.9.5-4.1 1.4-2.1 1.8-4.2 3.1-6.6 4-2.3.9-4.8 1.3-7.5 1.3-3 0-5.8-.6-8.5-1.7-2.6-1.1-4.9-2.7-6.9-4.6-2-2-3.5-4.3-4.7-6.9-1.1-2.6-1.7-5.5-1.7-8.5s.6-5.8 1.7-8.5c1.3-2.6 2.9-4.9 4.8-6.9z"/><path fill="#C62D44" d="M361.5 369.1c1.8 0 3.3-.6 4.6-1.8 1.3-1.2 1.9-2.7 2-4.5 0-1.8-.5-3.3-1.8-4.7l-8.4-8.8-13.6-14.2c1.3 1.2 1.7 2.8 1.7 4.6v15.8l2.5 2.7 8.4 8.8c1.3 1.4 2.8 2 4.6 2.1zm-21.8-35.9h-.1.5-.4zm.6 0c.4 0 .8.1 1.2.2-.5-.1-.8-.2-1.2-.2zm1.2.3c1.1.3 2 .9 2.8 1.7-.8-.9-1.7-1.4-2.8-1.7zm-6.4 1.4l-.2.2c.9-.9 1.9-1.5 3.1-1.8-1 .3-2 .8-2.9 1.6z"/><path fill="#E93D50" d="M344.3 335.1c-.8-.8-1.7-1.4-2.8-1.7h-.1c-.4-.1-.8-.2-1.2-.2h-1.6l-.3.1h-.2c-1.2.3-2.2 1-3.1 1.8l-.3.3c-1 1.2-1.5 2.6-1.5 4.3v58.5c-6.3-5.1-13.5-7.6-21.7-7.6-9.6 0-17.7 3.4-24.5 10.1s-10.1 14.9-10.1 24.5 3.4 17.7 10.1 24.5c6.8 6.8 14.9 10.1 24.5 10.1 9.5 0 17.6-3.4 24.5-10.1 6.8-6.7 10.1-14.8 10.1-24.5v-85.5c-.1-1.8-.5-3.3-1.8-4.6zm67.3 65.8c-6.8-6.8-15-10.1-24.5-10.1-9.6 0-17.7 3.4-24.5 10.1-6.8 6.8-10.1 14.9-10.1 24.5s3.4 17.7 10.1 24.5c6.8 6.8 14.9 10.1 24.5 10.1 9.5 0 17.6-3.4 24.5-10.1 6.8-6.7 10.1-14.8 10.1-24.5 0-4.8-.9-9.2-2.6-13.3-1.6-4.1-4.1-7.8-7.5-11.2zm53 48c-1.2-1.3-2.7-1.9-4.5-1.9-8.2 0-12.4-4.1-12.4-12.3v-31.1h7.7c1.8 0 3.3-.6 4.5-1.9 1.2-1.3 1.9-2.8 1.9-4.6 0-1.8-.6-3.3-1.9-4.5-1.2-1.3-2.7-1.9-4.5-1.9h-7.7v-23.2c0-1.8-.6-3.3-1.9-4.5-1.3-1.3-2.8-1.9-4.5-1.9-1.8 0-3.3.6-4.6 1.9-1.3 1.3-1.9 2.8-1.9 4.5v23.2H427c-1.8 0-3.3.6-4.5 1.9-1.2 1.3-1.9 2.8-1.9 4.5 0 1.8.6 3.4 1.9 4.6 1.2 1.3 2.7 1.9 4.5 1.9h7.7v31.1c0 16.8 8.4 25.2 25.3 25.2 1.8 0 3.3-.6 4.5-1.9s1.9-2.8 1.9-4.6c0-1.7-.6-3.3-1.8-4.5z"/></svg>